<svg width="12" height="11" viewBox="0 0 12 11" fill="none" xmlns="http://www.w3.org/2000/svg">
<path d="M4.63693 0.967362C5.17215 -0.197796 6.82785 -0.197797 7.36307 0.96736L7.79893 1.91622C8.02403 2.40625 8.49484 2.73774 9.03207 2.78445L9.95061 2.86432C11.289 2.98069 11.8113 4.66251 10.7743 5.51655L10.224 5.96973C9.78101 6.33458 9.58502 6.92021 9.71916 7.47822L9.90315 8.24352C10.2085 9.51386 8.8567 10.5402 7.71512 9.90476L6.72958 9.35614C6.27597 9.10362 5.72403 9.10362 5.27042 9.35614L4.28488 9.90476C3.1433 10.5402 1.79145 9.51387 2.09685 8.24352L2.28084 7.47822C2.41498 6.92022 2.21899 6.33458 1.77599 5.96973L1.22573 5.51655C0.188749 4.66251 0.711045 2.98069 2.04939 2.86432L2.96793 2.78445C3.50516 2.73774 3.97597 2.40625 4.20107 1.91622L4.63693 0.967362Z" fill="#3E94E3"/>
</svg>
